<svg width="21" height="24" viewBox="0 0 21 24" fill="none" xmlns="http://www.w3.org/2000/svg">
<g id="material-symbols-light:event-available-outline" clip-path="url(#clip0_505_5402)">
<path id="Vector" d="M8.97708 19.1812L5.2855 15.4897L6.2155 14.5597L8.97708 17.3225L14.4512 11.8472L15.3812 12.7772L8.97708 19.1812ZM2.08604 23.5471C1.49187 23.5471 0.995875 23.3482 0.598041 22.9503C0.199347 22.5516 0 22.0552 0 21.461V4.96646C0 4.37229 0.199347 3.87629 0.598041 3.47846C0.995875 3.07976 1.49187 2.88042 2.08604 2.88042H4.37229V0H5.76342V2.88042H15.0027V0H16.2944V2.88042H18.5806C19.1748 2.88042 19.6708 3.07976 20.0686 3.47846C20.4673 3.87629 20.6667 4.37229 20.6667 4.96646V21.461C20.6667 22.0552 20.4677 22.5512 20.0699 22.949C19.6712 23.3477 19.1748 23.5471 18.5806 23.5471H2.08604ZM2.08604 22.2554H18.5806C18.7787 22.2554 18.9608 22.1727 19.127 22.0074C19.2923 21.8412 19.375 21.6591 19.375 21.461V10.1331H1.29167V21.461C1.29167 21.6591 1.37433 21.8412 1.53967 22.0074C1.70586 22.1727 1.88799 22.2554 2.08604 22.2554ZM1.29167 8.84146H19.375V4.96646C19.375 4.7684 19.2923 4.58628 19.127 4.42008C18.9608 4.25475 18.7787 4.17208 18.5806 4.17208H2.08604C1.88799 4.17208 1.70586 4.25475 1.53967 4.42008C1.37433 4.58628 1.29167 4.7684 1.29167 4.96646V8.84146Z" fill="black"/>
</g>
<defs>
<clipPath id="clip0_505_5402">
<rect width="21" height="24" fill="white"/>
</clipPath>
</defs>
</svg>
