<svg width="33" height="24" viewBox="0 0 33 24" fill="none" xmlns="http://www.w3.org/2000/svg">
<g id="iconoir:donate" clip-path="url(#clip0_505_5416)">
<g id="Group">
<path id="Vector" d="M22 5.135C21.9999 5.96235 21.6727 6.75611 21.0898 7.34325C19.7478 8.69625 18.4456 10.107 17.0528 11.4105C16.8972 11.5522 16.6933 11.6287 16.483 11.6244C16.2726 11.62 16.072 11.5351 15.9225 11.3871L11.9103 7.34462C11.327 6.75711 10.9997 5.96284 10.9997 5.135C10.9997 4.30715 11.327 3.51288 11.9103 2.92537C12.2013 2.6322 12.5474 2.39951 12.9288 2.24073C13.3101 2.08194 13.7192 2.00019 14.1323 2.00019C14.5453 2.00019 14.9544 2.08194 15.3357 2.24073C15.7171 2.39951 16.0632 2.6322 16.3543 2.92537L16.5 3.0725L16.6458 2.92537C17.0826 2.48381 17.6409 2.18223 18.2497 2.05902C18.8585 1.93581 19.4902 1.99654 20.0643 2.23349C20.6385 2.47043 21.1292 2.87288 21.4739 3.38958C21.8186 3.90628 22.0017 4.51387 22 5.135Z" stroke="black" stroke-width="1.375" stroke-linejoin="round"/>
<path id="Vector_2" d="M24.75 24L30.008 18.742C30.1628 18.5874 30.2498 18.3777 30.25 18.159V10.9375C30.25 10.3905 30.0327 9.86589 29.6459 9.47909C29.2591 9.0923 28.7345 8.875 28.1875 8.875C27.6405 8.875 27.1159 9.0923 26.7291 9.47909C26.3423 9.86589 26.125 10.3905 26.125 10.9375V17.125" stroke="black" stroke-width="1.375" stroke-linecap="round" stroke-linejoin="round"/>
<path id="Vector_3" d="M24.75 18.5L25.9297 17.3203C25.9917 17.2584 26.0409 17.1848 26.0744 17.1039C26.1079 17.023 26.1251 16.9362 26.125 16.8486C26.1248 16.725 26.0902 16.6038 26.0252 16.4987C25.9601 16.3935 25.8671 16.3086 25.7565 16.2533L25.1474 15.9494C24.6313 15.6913 24.0472 15.6022 23.4777 15.6945C22.9081 15.7868 22.382 16.0558 21.9739 16.4636L20.7433 17.6942C20.2275 18.2099 19.9377 18.9092 19.9375 19.6385V24M8.25 24L2.992 18.742C2.83724 18.5874 2.75019 18.3777 2.75 18.159V10.9375C2.75 10.3905 2.9673 9.86589 3.35409 9.47909C3.74089 9.0923 4.26549 8.875 4.8125 8.875C5.35951 8.875 5.88411 9.0923 6.27091 9.47909C6.6577 9.86589 6.875 10.3905 6.875 10.9375V17.125" stroke="black" stroke-width="1.375" stroke-linecap="round" stroke-linejoin="round"/>
<path id="Vector_4" d="M8.25 18.5L7.07025 17.3203C7.00833 17.2583 6.95922 17.1848 6.92572 17.1039C6.89221 17.0229 6.87498 16.9362 6.875 16.8486C6.875 16.597 7.018 16.3674 7.2435 16.2533L7.85262 15.9494C8.36868 15.6914 8.95281 15.6022 9.52235 15.6945C10.0919 15.7868 10.618 16.0558 11.0261 16.4636L12.2567 17.6943C12.7725 18.2099 13.0623 18.9092 13.0625 19.6385V24" stroke="black" stroke-width="1.375" stroke-linecap="round" stroke-linejoin="round"/>
</g>
</g>
<defs>
<clipPath id="clip0_505_5416">
<rect width="33" height="24" fill="white"/>
</clipPath>
</defs>
</svg>
