<svg width="16" height="19" viewBox="0 0 16 19" fill="none" xmlns="http://www.w3.org/2000/svg">
<g id="fa:youtube" clip-path="url(#clip0_34_691)">
<path id="Vector" d="M9.71002 12.98V15.09C9.71002 15.5367 9.58002 15.76 9.32002 15.76C9.16669 15.76 9.01669 15.6867 8.87002 15.54V12.53C9.01669 12.3834 9.16669 12.31 9.32002 12.31C9.58002 12.31 9.71002 12.5334 9.71002 12.98ZM13.09 12.99V13.45H12.19V12.99C12.19 12.5367 12.34 12.31 12.64 12.31C12.94 12.31 13.09 12.5367 13.09 12.99ZM3.43002 10.81H4.50002V9.87004H1.38002V10.81H2.43002V16.5H3.43002V10.81ZM6.31002 16.5H7.20002V11.56H6.31002V15.34C6.11002 15.62 5.92002 15.76 5.74002 15.76C5.62002 15.76 5.55002 15.69 5.53002 15.55C5.52335 15.53 5.52002 15.4134 5.52002 15.2V11.56H4.63002V15.47C4.63002 15.7967 4.65669 16.04 4.71002 16.2C4.79002 16.4467 4.98335 16.57 5.29002 16.57C5.61002 16.57 5.95002 16.3667 6.31002 15.96V16.5ZM10.6 15.02V13.05C10.6 12.5634 10.57 12.2334 10.51 12.06C10.3967 11.6867 10.16 11.5 9.80002 11.5C9.46669 11.5 9.15668 11.68 8.87002 12.04V9.87004H7.98002V16.5H8.87002V16.02C9.17002 16.3867 9.48002 16.57 9.80002 16.57C10.16 16.57 10.3967 16.3867 10.51 16.02C10.57 15.84 10.6 15.5067 10.6 15.02ZM13.98 14.92V14.79H13.07C13.07 15.13 13.0634 15.3334 13.05 15.4C13.0034 15.64 12.87 15.76 12.65 15.76C12.3434 15.76 12.19 15.53 12.19 15.07V14.2H13.98V13.17C13.98 12.6434 13.89 12.2567 13.71 12.01C13.45 11.67 13.0967 11.5 12.65 11.5C12.1967 11.5 11.84 11.67 11.58 12.01C11.3934 12.2567 11.3 12.6434 11.3 13.17V14.9C11.3 15.4267 11.3967 15.8134 11.59 16.06C11.85 16.4 12.21 16.57 12.67 16.57C13.15 16.57 13.51 16.3934 13.75 16.04C13.87 15.86 13.94 15.68 13.96 15.5C13.9734 15.44 13.98 15.2467 13.98 14.92ZM7.90002 5.79004V3.69004C7.90002 3.23004 7.75669 3.00004 7.47002 3.00004C7.18335 3.00004 7.04002 3.23004 7.04002 3.69004V5.79004C7.04002 6.25671 7.18335 6.49004 7.47002 6.49004C7.75669 6.49004 7.90002 6.25671 7.90002 5.79004ZM15.09 13.3C15.09 14.86 15.0034 16.0267 14.83 16.8C14.7367 17.1934 14.5434 17.5234 14.25 17.79C13.9567 18.0567 13.6167 18.21 13.23 18.25C12.0034 18.39 10.1534 18.46 7.68002 18.46C5.20669 18.46 3.35669 18.39 2.13002 18.25C1.74335 18.21 1.40169 18.0567 1.10502 17.79C0.808353 17.5234 0.616686 17.1934 0.530019 16.8C0.356686 16.0534 0.27002 14.8867 0.27002 13.3C0.27002 11.74 0.356686 10.5734 0.530019 9.80004C0.623353 9.40671 0.816686 9.07671 1.11002 8.81004C1.40335 8.54337 1.74669 8.38671 2.14002 8.34004C3.36002 8.20671 5.20669 8.14004 7.68002 8.14004C10.1534 8.14004 12.0034 8.20671 13.23 8.34004C13.6167 8.38671 13.9584 8.54337 14.255 8.81004C14.5517 9.07671 14.7434 9.40671 14.83 9.80004C15.0034 10.5467 15.09 11.7134 15.09 13.3ZM5.11002 0.540039H6.13002L4.92002 4.53004V7.24004H3.92002V4.53004C3.82669 4.03671 3.62335 3.33004 3.31002 2.41004C3.06335 1.72337 2.84669 1.10004 2.66002 0.540039H3.72002L4.43002 3.17004L5.11002 0.540039ZM8.81002 3.87004V5.62004C8.81002 6.16004 8.71669 6.55337 8.53002 6.80004C8.27669 7.14004 7.92335 7.31004 7.47002 7.31004C7.02335 7.31004 6.67335 7.14004 6.42002 6.80004C6.23335 6.54671 6.14002 6.15337 6.14002 5.62004V3.87004C6.14002 3.33671 6.23335 2.94671 6.42002 2.70004C6.67335 2.36004 7.02335 2.19004 7.47002 2.19004C7.92335 2.19004 8.27669 2.36004 8.53002 2.70004C8.71669 2.94671 8.81002 3.33671 8.81002 3.87004ZM12.16 2.25004V7.24004H11.25V6.69004C10.8967 7.10337 10.5534 7.31004 10.22 7.31004C9.91335 7.31004 9.71669 7.18671 9.63002 6.94004C9.57668 6.78004 9.55002 6.53004 9.55002 6.19004V2.25004H10.46V5.92004C10.46 6.14004 10.4634 6.25671 10.47 6.27004C10.49 6.41671 10.56 6.49004 10.68 6.49004C10.86 6.49004 11.05 6.34671 11.25 6.06004V2.25004H12.16Z" fill="black"/>
</g>
<defs>
<clipPath id="clip0_34_691">
<rect width="15.36" height="17.92" fill="white" transform="translate(0 0.540039)"/>
</clipPath>
</defs>
</svg>
