<svg width="25" height="25" viewBox="0 0 25 25" fill="none" xmlns="http://www.w3.org/2000/svg">
<g id="Group">
<path id="Vector" d="M12.5 5.6C13.7703 5.6 14.8 4.57026 14.8 3.3C14.8 2.02975 13.7703 1 12.5 1C11.2297 1 10.2 2.02975 10.2 3.3C10.2 4.57026 11.2297 5.6 12.5 5.6Z" stroke="black" stroke-width="1.15" stroke-linecap="round" stroke-linejoin="round"/>
<path id="Vector_2" d="M10.43 2.38C5.025 3.3 1 8.015 1 13.65C1 14.26 1.24232 14.845 1.67365 15.2763C2.10499 15.7077 2.69 15.95 3.3 15.95C3.91 15.95 4.49501 15.7077 4.92635 15.2763C5.35768 14.845 5.6 14.26 5.6 13.65V12.5C5.6 11.89 5.84232 11.305 6.27365 10.8737C6.70499 10.4423 7.29 10.2 7.9 10.2C8.51 10.2 9.09501 10.4423 9.52634 10.8737C9.95768 11.305 10.2 11.89 10.2 12.5V17.1C10.2 17.71 10.4423 18.295 10.8737 18.7263C11.305 19.1577 11.89 19.4 12.5 19.4C13.11 19.4 13.695 19.1577 14.1263 18.7263C14.5577 18.295 14.8 17.71 14.8 17.1V12.5C14.8 11.89 15.0423 11.305 15.4737 10.8737C15.905 10.4423 16.49 10.2 17.1 10.2C17.71 10.2 18.295 10.4423 18.7263 10.8737C19.1577 11.305 19.4 11.89 19.4 12.5V13.65C19.4 14.26 19.6423 14.845 20.0737 15.2763C20.505 15.7077 21.09 15.95 21.7 15.95C22.31 15.95 22.895 15.7077 23.3263 15.2763C23.7577 14.845 24 14.26 24 13.65C24 8.015 19.975 3.3 14.57 2.38" stroke="black" stroke-width="1.15" stroke-linecap="round" stroke-linejoin="round"/>
<path id="Vector_3" d="M2.38001 15.72C2.87648 18.0355 4.15197 20.1107 5.99367 21.5994C7.83537 23.0881 10.1319 23.9002 12.5 23.9002C14.8681 23.9002 17.1647 23.0881 19.0064 21.5994C20.8481 20.1107 22.1235 18.0355 22.62 15.72" stroke="black" stroke-width="1.15" stroke-linecap="round" stroke-linejoin="round"/>
</g>
</svg>
